<svg enable-background="new 0 0 128 128" viewBox="0 0 128 128" xmlns="http://www.w3.org/2000/svg" xmlns:xlink="http://www.w3.org/1999/xlink"><linearGradient id="a"><stop offset="0" stop-color="#ae9869"/><stop offset=".0247" stop-color="#b6a274"/><stop offset=".1147" stop-color="#cfc099"/><stop offset=".1986" stop-color="#e1d6b3"/><stop offset=".2734" stop-color="#ece3c3"/><stop offset=".3316" stop-color="#f0e8c9"/><stop offset=".5657" stop-color="#efe7c7"/><stop offset=".6868" stop-color="#ece2bf"/><stop offset=".782" stop-color="#e7d9b2"/><stop offset=".8637" stop-color="#e0cd9f"/><stop offset=".936" stop-color="#d8be86"/><stop offset=".9949" stop-color="#cead6c"/></linearGradient><linearGradient id="b" gradientTransform="matrix(1 0 0 -1 0 128)" gradientUnits="userSpaceOnUse" x1="37.2748" x2="1.4228" xlink:href="#a" y1="92.8856" y2="123.7799"/><linearGradient id="c" gradientTransform="matrix(1 0 0 -1 0 128)" gradientUnits="userSpaceOnUse" x1="24.9347" x2="11.2907" xlink:href="#a" y1="83.5784" y2="95.3364"/><linearGradient id="d" gradientTransform="matrix(1 0 0 -1 0 128)" gradientUnits="userSpaceOnUse" x1="20.1332" x2="15.7042" xlink:href="#a" y1="98.0438" y2="101.8608"/><linearGradient id="e" gradientTransform="matrix(1 0 0 -1 0 128)" gradientUnits="userSpaceOnUse" x1="15.0953" x2="12.0783" xlink:href="#a" y1="102.3032" y2="104.9032"/><linearGradient id="f" gradientTransform="matrix(1 0 0 -1 0 128)" gradientUnits="userSpaceOnUse" x1="9.8562" x2="8.1856" xlink:href="#a" y1="98.9635" y2="100.4035"/><linearGradient id="g" gradientTransform="matrix(1 0 0 -1 0 128)" gradientUnits="userSpaceOnUse" x1="30.995" x2="27.938" xlink:href="#a" y1="85.8833" y2="88.5173"/><linearGradient id="h" gradientTransform="matrix(.9526 .3042 .3042 -.9526 -29.183 108.5338)" gradientUnits="userSpaceOnUse" x1="47.2168" x2="43.6348" xlink:href="#a" y1="98.5708" y2="101.6568"/><linearGradient id="i" gradientTransform="matrix(1 0 0 -1 0 128)" gradientUnits="userSpaceOnUse" x1="43.9188" x2="42.0018" xlink:href="#a" y1="104.3079" y2="105.9599"/><linearGradient id="j" gradientTransform="matrix(1 0 0 -1 0 128)" gradientUnits="userSpaceOnUse" x1="45.8647" x2="42.7627" xlink:href="#a" y1="111.2159" y2="113.8899"/><linearGradient id="k" gradientTransform="matrix(1 0 0 -1 0 128)" gradientUnits="userSpaceOnUse" x1="41.5436" x2="40.1236" xlink:href="#a" y1="114.5606" y2="115.7846"/><linearGradient id="l" gradientTransform="matrix(1 0 0 -1 0 128)" gradientUnits="userSpaceOnUse" x1="36.2181" x2="30.2121" xlink:href="#a" y1="118.3914" y2="123.5669"/><linearGradient id="m" gradientTransform="matrix(1 0 0 -1 0 128)" gradientUnits="userSpaceOnUse" x1="41.1102" x2="39.0962" xlink:href="#a" y1="98.3815" y2="100.1175"/><linearGradient id="n" gradientTransform="matrix(.9691 .2469 .2469 -.9691 -28.3265 117.8926)" gradientUnits="userSpaceOnUse" x1="32.1732" x2="23.1242" xlink:href="#a" y1="114.4595" y2="122.2564"/><linearGradient id="o" gradientTransform="matrix(1 0 0 -1 0 128)" gradientUnits="userSpaceOnUse" x1="19.9994" x2="13.2084" xlink:href="#a" y1="118.6957" y2="124.5475"/><linearGradient id="p" gradientTransform="matrix(1 0 0 -1 0 128)" gradientUnits="userSpaceOnUse" x1="14.1631" x2="11.5851" xlink:href="#a" y1="94.1496" y2="96.3706"/><linearGradient id="q" gradientTransform="matrix(1 0 0 -1 0 128)" gradientUnits="userSpaceOnUse" x1="40.4989" x2="39.2039" xlink:href="#a" y1="81.7493" y2="82.8643"/><linearGradient id="r" gradientTransform="matrix(.8155 -.0122 .0122 -.8959 4.6585 118.4132)" gradientUnits="userSpaceOnUse" x1="45.0014" x2="28.1904" xlink:href="#a" y1="102.1153" y2="116.6013"/><radialGradient id="s" cx="85.667" cy="44.611" gradientTransform="matrix(.7071 -.7071 -.7071 -.7071 42.7218 168.2928)" gradientUnits="userSpaceOnUse" r="66.414"><stop offset="0" stop-color="#8eb80c"/><stop offset=".2036" stop-color="#638a12"/><stop offset=".4222" stop-color="#3c5f17"/><stop offset=".5931" stop-color="#23441b"/><stop offset=".6939" stop-color="#1a3a1c"/><stop offset=".7992" stop-color="#1c3c1c"/><stop offset=".8499" stop-color="#23441b"/><stop offset=".889" stop-color="#2f5119"/><stop offset=".922" stop-color="#406317"/><stop offset=".9513" stop-color="#567b14"/><stop offset=".9776" stop-color="#719810"/><stop offset="1" stop-color="#8eb80c"/></radialGradient><linearGradient id="t" gradientTransform="matrix(.7071 -.7071 -.7071 -.7071 42.7218 168.2928)" gradientUnits="userSpaceOnUse" x1="73.6678" x2="106.3011" y1="14.9821" y2="14.9821"><stop offset="0" stop-color="#a4884c"/><stop offset=".7398" stop-color="#f0e8c9"/></linearGradient><linearGradient id="u" gradientTransform="matrix(1 0 0 -1 0 128)" gradientUnits="userSpaceOnUse" x1="87.0212" x2="105.3912" y1="24.5088" y2="42.8788"><stop offset=".1378" stop-color="#ccb482"/><stop offset=".699" stop-color="#f0e8c9"/><stop offset=".7505" stop-color="#ede4c2"/><stop offset=".8252" stop-color="#e6d7af"/><stop offset=".9137" stop-color="#dbc38f"/><stop offset=".9949" stop-color="#cead6c"/></linearGradient><linearGradient id="v" gradientTransform="matrix(.7071 -.7071 -.7071 -.7071 42.7218 168.2928)" gradientUnits="userSpaceOnUse" x1="81.558" x2="97.978" y1="76.4882" y2="76.4882"><stop offset="0" stop-color="#a4884c"/><stop offset=".2704" stop-color="#ae9869"/><stop offset=".7398" stop-color="#f0e8c9"/><stop offset=".9949" stop-color="#cead6c"/></linearGradient><linearGradient id="w" gradientUnits="userSpaceOnUse" x1="77.0085" x2="60.8225" y1="58.2582" y2="75.3744"><stop offset="0" stop-color="#616161"/><stop offset=".5029" stop-color="#212121"/><stop offset="1" stop-color="#616161"/></linearGradient><linearGradient id="x"><stop offset="0" stop-color="#a4884c"/><stop offset=".699" stop-color="#f0e8c9"/><stop offset=".7505" stop-color="#ede4c2"/><stop offset=".8252" stop-color="#e6d7af"/><stop offset=".9137" stop-color="#dbc38f"/><stop offset=".9949" stop-color="#cead6c"/></linearGradient><linearGradient id="y" gradientTransform="matrix(.7071 -.7071 -.7071 -.7071 42.7218 168.2928)" gradientUnits="userSpaceOnUse" x1="86.166" x2="93.976" xlink:href="#x" y1="53.4893" y2="53.4893"/><linearGradient id="z" gradientTransform="matrix(.7071 -.7071 -.7071 -.7071 42.7218 168.2928)" gradientUnits="userSpaceOnUse" x1="80.284" x2="99.7769" xlink:href="#x" y1="59.444" y2="59.444"/><linearGradient id="A" gradientTransform="matrix(.7071 -.7071 -.7071 -.7071 42.7218 168.2928)" gradientUnits="userSpaceOnUse" x1="78.2846" x2="101.6926" xlink:href="#x" y1="49.4459" y2="49.4459"/><path d="m32.84 32.96c-.4-.38-1-.45-1.55-.47-1.01-.02-2.04.09-3.01-.16-.98-.25-1.93-.97-2.05-1.97-.06-.46.05-.98-.24-1.34-.31-.38-.87-.36-1.35-.43-1.05-.15-1.99-.92-2.35-1.92-.2-.54-.24-1.16-.62-1.6-.71-.84-2.11-.52-3.07-1.06-.97-.55-1.23-1.81-1.72-2.81-.63-1.3-1.81-2.33-3.18-2.78-.27-.09-.56-.15-.83-.05-.4.15-.63.64-1.05.68-.81.08-1.19-1.5-1.94-1.19-.16.06-.26.2-.38.32-.9.89-2.69.46-3.08-.74-.07-.2-.1-.43-.01-.62.25-.57 1.19-.44 1.55-.95.36-.52-.23-1.25-.86-1.35s-1.27.13-1.9.12c-.76-.02-1.54-.47-1.8-1.19s.18-1.65.93-1.79c.48-.09.98.13 1.45 0 .58-.15.9-.76 1.07-1.33.16-.57.25-1.19.61-1.66.67-.85 2.21-.72 2.73.22.34.63.35 1.55 1.02 1.81.46.18.98-.1 1.33-.45s.64-.78 1.08-1.01c.97-.51 2.17.21 2.77 1.12s.88 2.02 1.55 2.89c.72.93 1.87 1.5 3.04 1.5 1.13.01 2.35-.47 3.35.06 1.77.94 1.09 3.96 2.66 5.22.93.75 2.28.57 3.46.83 1.39.31 2.6 1.31 3.24 2.58.65 1.27.75 2.79.38 4.17-.33 1.22-.98 2.62-.24 3.64.73 1.01 2.39.95 3.13 1.95.91 1.23.46 4.57-1.57 4.21-2.57-.44-1.24-3.2-2.55-4.45z" fill="url(#b)"/><path d="m27.92 35.89c-.21-.57-.69-1.27-1.24-1.02-.25.11-.39.39-.63.52-.5.27-1.06-.22-1.39-.68s-.8-.99-1.35-.84c-.68.19-.74 1.28-1.41 1.5-.7.23-1.2-.65-1.74-1.15-.59-.55-1.52-.71-2.26-.38s-1.23 1.13-1.21 1.94c.01.21.05.43.21.57.21.2.54.16.83.16.83-.01 1.8.67 1.57 1.47-.26.88-1.63.79-2.28.14s-.95-1.6-1.62-2.22-2.08-.6-2.23.31c-.07.39.12.87-.18 1.14-.54.49-1.42-.71-2.03-.31-.6.4.24 1.43-.15 2.03-.13.2-.36.29-.56.41-1.01.6-1.36 2.09-.72 3.07s2.15 1.26 3.1.57c.52-.37.85-.96 1.35-1.36s1.34-.54 1.71-.02c.33.45.11 1.07.13 1.62.03.93 1.2 1.76 1.92 1.18.46-.37.58-1.13 1.14-1.3.41-.12.84.17 1.07.53s.33.79.53 1.17c.7 1.31 2.73 1.64 3.82.62 1.08-1.02.87-3.07-.4-3.85-.77-.47-1.91-.65-2.1-1.53-.66-3.05 7.7.08 6.12-4.29z" fill="url(#c)"/><path d="m18.87 29.39c.97-.41 1.86.55 2.35-.68.97-2.41-3.84-3.16-5.04-1.84-.18.2-.31.43-.4.68-.28.71-.29 1.56.15 2.19 1.09 1.58 1.94.07 2.94-.35z" fill="url(#d)"/><path d="m11.83 24.92c-.16-.02-.3.19-.21.33.96.21 1.95.26 2.93.17.39-.04.79-.1 1.11-.33s.53-.65.38-1.02c-.17-.43-.71-.57-1.18-.59-1.12-.04-2.24.29-3.16.92z" fill="url(#e)"/><path d="m10.08 28.81c.26-.48-.05-1.15-.57-1.32s-1.13.16-1.32.67c-.14.38-.02.89.35 1.04.01.01 1.29.09 1.54-.39z" fill="url(#f)"/><path d="m32.34 39.64c-.29-.32-2.36-.37-2.83-.18-.54.21-.99.57-1.44.93-.34.27-.7.56-.9.96s-.19.93.13 1.22c.37.34.99.23 1.39-.08s.66-.76.99-1.14.78-.73 1.29-.68c.47.05 2.38.11 1.37-1.03z" fill="url(#g)"/><path d="m43.16 30.68c.74-.35 1.27-1.08 1.85-1.74.91-1.05 1.86-2.21 1.93-3.59.01-.28-.03-.6-.25-.77-.11-.09-.25-.12-.39-.14-1.36-.19-2.42 1.17-2.9 2.46-.4 1.09-.99 2.78-.24 3.78z" fill="url(#h)"/><path d="m43.11 22.87c.45-.7 1.53-.91 1.78-1.7-.49-.27-1.18-.08-1.47.4-.13.21-.2.48-.42.6-.21.11-.5.03-.7.15-.71.43-1.18 2.5-.32 3.05 1.06.68.79-1.97 1.13-2.5z" fill="url(#i)"/><path d="m44.23 17.61c.23.17.54.24.79.13.25-.1.41-.35.53-.6.29-.61.42-1.31.29-1.97-.14-.66-.56-1.28-1.17-1.57-.12-.06-.24-.1-.38-.1-.33.01-.56.33-.68.63-.41 1-.33 2.79.62 3.48z" fill="url(#j)"/><path d="m40.99 13.97c.72-.26.97-1.65.3-2.07-.26-.16-.62.01-.76.27-.24.46-.4 2.11.46 1.8z" fill="url(#k)"/><path d="m34.79 10.74c-.01-.48-.12-.95-.17-1.43-.14-1.3.16-2.62.66-3.84.18-.45.4-.93.28-1.4-.18-.67-.95-.98-1.63-1.11-.29-.05-.6-.09-.87.04-.31.15-.47.49-.61.8-.28.62-.56 1.31-.38 1.96.12.46.46.84.63 1.28.56 1.47-.64 3.01-.01 4.5.67 1.59 2.12.59 2.1-.8z" fill="url(#l)"/><path d="m41.06 28.7c.03-.33.01-.67-.16-.95s-.54-.46-.83-.33c-.21.09-.33.31-.42.52-.28.68-.49 1.87.26 2.37.89.6 1.1-1.03 1.15-1.61z" fill="url(#m)"/><path d="m27.91 16.48c.09.17.25.32.44.36.39.09.73-.26.95-.59.51-.76.86-1.63.94-2.54s-.13-1.86-.66-2.6c-.45-.63-1.14-1.15-1.25-1.91-.09-.61.22-1.2.47-1.76s.45-1.24.14-1.78c-.13-.24-.35-.42-.56-.58-.12-.09-.24-.17-.38-.2-.38-.09-.74.21-.97.53-.73 1.06-.67 2.49-.26 3.71.15.46.35.92.28 1.4-.11.69-.49 1.24.05 1.87.35.4.96.36 1.29.72.78.87-1.06 2.3-.48 3.37z" fill="url(#n)"/><path d="m19.5 10.1c.72-.83-.31-1.72-.61-2.45-.09-.23-.13-.47-.19-.7-.16-.62-.44-1.21-.84-1.71-.29-.37-.71-.72-1.17-.66-.12.01-.23.05-.35.05-.57 0-.86-.85-1.44-.86-.35-.01-.63.34-.67.69s.1.69.25 1.01c.32.68.72 1.35 1.37 1.73.59.35 1.39.47 1.75 1.05.19.3.22.66.28 1.01.12.75.92 1.66 1.62.84z" fill="url(#o)"/><path d="m14.65 33.17c.05-.42-.26-.79-.59-1.04-.34-.26-.74-.47-1.17-.5-1.07-.08-1.9 1.32-.89 1.98.65.41 2.52.62 2.65-.44z" fill="url(#p)"/><path d="m39.51 45.15c-.13.14-.2.34-.22.53-.03.29.06.62.29.8.21.16.54.15.72-.03.34-.16.32-.59.23-.92-.04-.18-.1-.37-.24-.48-.19-.15-.48-.13-.68.01-.03.02-.06.06-.1.09z" fill="url(#q)"/><path d="m39.98 44.94c-.13 0-.26.04-.36.12-.04.03-.07.06-.1.1-.13.14-.2.34-.22.53-.03.29.06.62.29.8.1.08.23.11.35.11.14 0 .27-.05.37-.14.34-.16.32-.59.23-.92-.04-.18-.1-.37-.24-.48-.09-.09-.21-.12-.32-.12z" fill="#424242" opacity=".2"/><path d="m36.92 28.61c.25-.56.68-1.01 1.04-1.5.58-.8.98-1.79.95-2.79-.02-.71-.25-1.43-.06-2.11.2-.73.81-1.22 1.24-1.81.52-.71.81-1.63.79-2.54-.01-.63-.21-1.32-.72-1.61-.28-.17-.63-.19-.92-.34-.53-.28-.79-.98-.81-1.63s.15-1.31.26-1.96c.05-.32.09-.66-.02-.95-.12-.3-.38-.49-.63-.67-.43-.32-.88-.64-1.39-.78s-1.1-.08-1.5.31c-.66.64-.54 1.78-.25 2.66s.7 1.83.43 2.73c-.2.67-.72 1.15-1.06 1.75-.51.91-.55 2.05-.28 3.05s.82 1.87 1.45 2.65c.36.45.76.88.98 1.42.62 1.55-.32 3.32-.5 5.02-.12 1.18.33 1.57 1.08 2.08.55.37.33.06.5.77.08.3-.07.53.15.77 1.46-1.68-1.47-2.88-.73-4.52z" fill="url(#r)"/><path d="m25.25 11.44c.96.02 1.78-.72 1.85-1.69l.14-2.05c.07-1-.69-1.87-1.69-1.93l-6.73-.46c-1-.07-1.87.69-1.94 1.69l-.14 2.05c-.07.97.65 1.81 1.6 1.92l-.26 3.76c-.07.99.69 1.86 1.68 1.92l3.3.22c.99.07 1.86-.69 1.92-1.68z" fill="#a87a2f"/><path d="m24.73 11.43c-.43.31-.95.46-1.45.55-.51.09-1.03.1-1.54.07-.51-.05-1.02-.13-1.51-.29s-.98-.37-1.37-.73l2.94.18c.97.07 1.9.16 2.93.22z" fill="#424242" opacity=".2"/><path d="m92.12 67.45c-5.09-4.86-11.71-6.39-17.59-9.55-5.88-3.17-17.08-10.51-22.74-15.49s-4.25-5.13-5.1-6.21c-.85-1.07-2.51-.32-2.51-1s-1.46-.92-1.46-.92c-.08 0-3.37 3.37-3.37 3.37s-3.31 3.22-3.31 3.31c0 0 .27 1.43.95 1.43s-.06 1.65 1.01 2.5 1.24-.56 6.22 5.09c4.98 5.66 12.33 16.85 15.49 22.74 3.17 5.88 4.69 12.5 9.56 17.59 4.86 5.09 31.41 31.36 31.41 31.36s2.86 4.61 15.07-7.61 7.67-15.13 7.67-15.13-26.21-26.61-31.3-31.48z" fill="url(#s)"/><path d="m75.37 96.76 17.98 17.98s3.84-3.17 12.39-11.71 10.46-11.59 10.46-11.59l-17.75-17.75s-1.55.19-12.22 10.97c-10.49 10.61-10.86 12.1-10.86 12.1z" fill="url(#t)"/><path d="m98.17 79.32 12.99 12.99c-.83 1.08-2.95 3.64-7.72 8.41-4.95 4.95-7.88 7.59-9.11 8.67l-13.1-13.1c.66-.9 2.58-3.21 8.09-8.78 5.65-5.68 7.97-7.57 8.85-8.19m.18-1.24s-1.09.01-9.73 8.74c-8.49 8.58-8.64 9.63-8.64 9.63l14.31 14.31s2.95-2.41 9.87-9.33c6.91-6.91 8.32-9.22 8.32-9.22s-14.13-14.13-14.13-14.13z" fill="url(#u)" opacity=".59"/><path d="m62.9 61.22c1.59-1.59 4-1.59 4-1.59l3.09-4.81c-3.37-2.04-7.16-4.43-10.1-6.52-6.83-4.85-10.77-8.99-10.72-10.92s-2.97-3.96-2.97-3.96c-1.92 1.26 1.24 3.37.81 4.93s-7.1.89-7.1.89l-.81 1.31s2.6 4.25 1.04 4.68-3.7-2.71-4.96-.79c0 0 2.02 3.02 3.96 2.97s6.07 3.89 10.92 10.72c2.08 2.94 4.47 6.72 6.51 10.08l4.83-3.07c0 .01.01-2.43 1.5-3.92z" fill="url(#v)"/><path d="m65.27 75.12c2.91-.27 2.42-.35 2.42-.35s-.46-1.05 1.47-.72c1.92.34 3.78.36 5.45-1.3s1.59-3.47 1.25-5.4c-.34-1.92.67-1.42.67-1.42s.09.48.35-2.42c.27-2.91 1.26-3.9 1.26-3.9s-3.7-2.1-8.15-4.79l-3.09 4.81s-2.42 0-4 1.59c-1.49 1.49-1.5 3.92-1.5 3.92l-4.83 3.07c2.7 4.46 4.81 8.17 4.81 8.17s.99-.99 3.89-1.26z" fill="url(#w)"/><path d="m71.35 64.02c2.08 2.08 2.53 5 1 6.53-1.52 1.52-4.45 1.08-6.53-1s-2.53-5-1-6.53 4.45-1.08 6.53 1z" fill="url(#y)"/><g fill="none" stroke-miterlimit="10" stroke-width=".4102"><path d="m70.7 55.23-3.51 5.54s-2.04 0-3.39 1.34c-1.26 1.26-1.27 3.32-1.27 3.32l-5.55 3.52" stroke="url(#z)"/><path d="m60.89 75.69s2.46-1.59 4.92-1.81c2.46-.23 1.66-1.19 3.29-.9 1.63.28 3.2.3 4.61-1.1s1.34-2.94 1.06-4.56c-.28-1.63.64-.79.86-3.25.23-2.46 1.76-4.86 1.76-4.86" stroke="url(#A)"/></g></svg>