<svg viewBox="0 0 1080 1080" xmlns="http://www.w3.org/2000/svg" xmlns:xlink="http://www.w3.org/1999/xlink"><clipPath id="a"><ellipse cx="447.2" cy="511.48" rx="107.95" ry="147.31" transform="matrix(.9953962 -.09584575 .09584575 .9953962 -46.98 45.23)"/></clipPath><clipPath id="b"><path d="m542.23 589.77s-181.59-2.75-222.59 7-33.82 36.64-21.52 48.68 12.55 30-16.91 32.29-109.67 8.45-119.92 36.89 31 52.53 115 49.71 183.2-17.23 204.21.23-30.49 20-7.94 42.56 140.93 13.84 180.9-2.3 61-43.05 37.92-70.21-53.9-33.62-46.07-48.69c6.66-12.82 6.37-31.69-10.27-40.06-27.14 4.7-168.53 31.83-168.53 31.83s-5.51-15.86 10.59-22.7 46.9-17.64 65.13-65.23z"/></clipPath><path d="m447.49 344.26 364.5 31a33.12 33.12 0 0 1 23.78 13c11 14.48 27.71 42.06 34.84 82.07 5.79 32.52-5.7 92.52-26.73 125.65a33 33 0 0 1 -21.74 14.6l-355.94 67.15z" fill="#e1ecff"/><ellipse cx="450.47" cy="511.16" fill="#f0f4ff" rx="126.33" ry="167.3" transform="matrix(.9953962 -.09584575 .09584575 .9953962 -46.93 45.54)"/><ellipse cx="447.2" cy="511.48" fill="#c7dcf9" rx="107.95" ry="147.31" transform="matrix(.9953962 -.09584575 .09584575 .9953962 -46.98 45.23)"/><g clip-path="url(#a)"><path d="m475.26 354s-66.1 119.73-18.13 235.37c-32.09 54-23.37 113.32-17.23 115.68s215.69-73.48 221.49-69.38-52.39-315.67-52.39-315.67z" fill="#c7dcf9" opacity=".37"/></g><path d="m562.53 354s55.11 46.7 64.59 152.53c8 88.86-52.27 150.66-52.27 150.66l201.59-38s43.71-57 43.71-129c0-79.43-52.84-118.73-52.84-118.73z" fill="#99adf9"/><path d="m552.59 556c-4 15.57-10.36 33.8-10.36 33.8l-78.54 43.08 2.51 44.88 355.94-67.16a33 33 0 0 0 21.74-14.6c8.67-13.67 15.72-31.91 20.6-50.9z" fill="#e1ecff" opacity=".58"/><path d="m661.39 413.94s30.11-3.84 34.85 19c3.46 16.69-18.93 23.93-18.93 23.93" fill="none" stroke="#1c3177" stroke-linecap="round" stroke-miterlimit="10" stroke-width="9"/><path d="m685.67 526.45s31.71 8.26 25.64 31.55c-3.77 14.46-29.25 17.28-29.25 17.28" fill="none" stroke="#1c3177" stroke-linecap="round" stroke-miterlimit="10" stroke-width="9"/><path d="m740.29 456.89c-8.93-.47-13.45 11.15-13.32 23.58s2.56 32 14.35 32.58 14-13.32 13.07-28.08-4.39-27.57-14.1-28.08z" fill="#1c3177"/><path d="m752.11 469.77s-10.45 3.61-10.28 12.57 5.07 16.14 12 17.64a52.89 52.89 0 0 0 -1.72-30.21z" fill="#ff97c9"/><g fill="#fea691"><path d="m542.23 589.77s-181.59-2.75-222.59 7-33.82 36.64-21.52 48.68 12.55 30-16.91 32.29-109.67 8.45-119.92 36.89 31 52.53 115 49.71 183.2-17.23 204.21.23-30.49 20-7.94 42.56 140.93 13.84 180.9-2.3 61-43.05 37.92-70.21-53.9-33.62-46.07-48.69c6.66-12.82 6.37-31.69-10.27-40.06-27.14 4.7-168.53 31.83-168.53 31.83s-5.51-15.86 10.59-22.7 46.9-17.64 65.13-65.23z"/><g clip-path="url(#b)"><path d="m413.24 590.15s101.22 14.57 63.86 64.85c72 20.88 138.75-77.68 138.75-77.68l-117.18-23.95z" opacity=".21"/><path d="m531.39 665.3s105.6-12.94 117 12.43c26.24-13.33 20.09-46.12 20.09-46.12l-101.48 10.25z" opacity=".21"/><path d="m213.2 686.56c-19.79 8.08-30.89 41.22 11.13 49.25s218.31-10.08 246.15 5.12 14.8 33.86 14.8 33.86l-338.5 23.88-7.17-101.47z" opacity=".21"/></g><path d="m278.65 862.72c-7.39-12.71 22.89-28.35 54-28.86s55.86 14 53.64 23.91-37.1 14.23-55.72 14.35-47.65-2.05-51.92-9.4z"/></g></svg>