<svg viewBox="0 0 72 72" xmlns="http://www.w3.org/2000/svg"><ellipse cx="36" cy="36" fill="#a57939" rx="19" ry="28"/><g fill="#6a462f"><path clip-rule="evenodd" d="m36 64c-.0154 0-.019-.0215-.0044-.0264 8.4649-2.8339 14.7964-14.2593 14.7964-27.9228 0-13.6712-6.3386-25.1017-14.8106-27.9276-.068-.02268-.0531-.1232.0186-.1232 10.4934 0 19 12.536 19 28s-8.5066 28-19 28z" fill-rule="evenodd"/><path d="m35.9956 63.9736.3175.9482zm13.7964-27.9228c0 6.6832-1.5494 12.7902-4.1049 17.5494-2.561 4.7696-6.0885 8.1126-10.009 9.4251l.635 1.8965c4.5444-1.5214 8.4151-5.308 11.1361-10.3755 2.7266-5.0779 4.3428-11.5153 4.3428-18.4955zm-14.127-26.97898c3.9235 1.30868 7.4543 4.65078 10.0179 9.42148 2.5579 4.7603 4.1091 10.8705 4.1091 17.5575h2c0-6.9842-1.618-13.4249-4.3474-18.5041-2.7237-5.0689-6.5983-8.85495-11.1468-10.37212zm.335-.07182c4.8166 0 9.2921 2.8765 12.6076 7.7625 3.3117 4.8805 5.3924 11.679 5.3924 19.2375h2c0-7.9055-2.1726-15.107-5.7375-20.3605-3.5612-5.248-8.5856-8.6395-14.2625-8.6395zm18 27c0 7.5585-2.0807 14.357-5.3924 19.2375-3.3155 4.886-7.791 7.7625-12.6076 7.7625v2c5.6769 0 10.7013-3.3915 14.2625-8.6395 3.5649-5.2535 5.7375-12.455 5.7375-20.3605zm-17.7022-28.82542c.4926.16432.6866.64631.6294 1.02694-.0578.38534-.3948.79848-.9272.79848v-2c-.6041 0-.9844.4634-1.0506.90467-.0655.43656.1549.98016.7156 1.16715zm-.6197 55.85072c-1.1251.3767-.7896 1.9747.3219 1.9747v-2c1.0808 0 1.409 1.5549.3131 1.9218z"/><path clip-rule="evenodd" d="m36 60.9996s-6-11.1929-6-25c0-13.7599 5.9591-24.9235 5.9998-24.9996-.0287.0538-2.9998 5.6294-2.9998 12.4996 0 6.9036 3 12.5 3 12.5s3 5.5964 3 12.5-3 12.5-3 12.5z" fill-rule="evenodd"/><path d="m36 60.9996-.8814.4725c.1742.3248.5128.5275.8814.5275s.7072-.2027.8814-.5275zm-.0002-49.9996.8819.4713c.2603-.487.0766-1.0928-.4104-1.3532-.487-.26034-1.0928-.0767-1.3533.4102zm.0002 24.9996.8814-.4725zm-7 0c0 7.0426 1.529 13.4025 3.0508 17.9924.7618 2.2976 1.5242 4.1589 2.098 5.4493.2869.6453.5269 1.1484.6963 1.4923.0848.172.1519.3043.1984.3947.0233.0452.0415.08.0541.104.0063.012.0113.0214.0148.028.0018.0033.0032.006.0042.0079.0005.001.001.0018.0013.0025.0002.0003.0004.0006.0004.0008.0002.0003.0003.0006.8817-.4719s.8815-.4723.8815-.4721h.0001c-.0001 0-.0002-.0002-.0004-.0006-.0004-.0008-.0012-.0022-.0023-.0043-.0022-.0043-.0059-.0112-.0109-.0208-.0101-.0191-.0256-.0489-.0463-.089-.0413-.0803-.1031-.202-.1825-.363-.1586-.3221-.3874-.8014-.663-1.4211-.5512-1.2398-1.2888-3.0397-2.027-5.2661-1.4782-4.4584-2.9492-10.5985-2.9492-17.363zm6.118-25.4713c-.0635.1188-6.118 11.4604-6.118 25.4713h2c0-13.509 5.8636-24.4944 5.8816-24.5279zm-1.118 12.9713c0-3.2967.714-6.2986 1.4387-8.4923.7236-2.1906 1.4474-3.5442 1.443-3.536l-1.7639-.9427c-.0515.0965-3.1178 5.8501-3.1178 12.971zm2 12.5c.8814-.4725.8815-.4723.8816-.4721 0 .0001.0001.0002.0001.0003.0001.0001.0001.0001.0001.0001-.0001-.0001-.0003-.0005-.0007-.0013-.0008-.0015-.0023-.0043-.0045-.0085-.0044-.0084-.0115-.022-.0212-.0408-.0194-.0376-.0489-.0958-.0873-.1736-.0766-.1556-.1882-.3892-.3231-.6927-.27-.6073-.6326-1.4918-.9958-2.5873-.7282-2.1963-1.4492-5.2113-1.4492-8.5241h-2c0 3.5908.779 6.8257 1.5508 9.1535.3868 1.1667.7742 2.1127 1.0667 2.7705.1463.3291.2691.5865.3565.764.0438.0887.0787.1575.1032.2052.0123.0239.0221.0425.029.0558.0035.0066.0063.0119.0084.0158.001.002.0019.0036.0026.0049.0003.0006.0006.0011.0008.0016.0002.0002.0003.0005.0004.0007s.0002.0005.8816-.472zm0 0c-.8814.4725-.8815.4723-.8816.4721 0-.0001-.0001-.0002-.0001-.0003-.0001-.0001-.0001-.0001-.0001-.0001.0001.0001.0003.0005.0007.0013.0008.0015.0023.0043.0045.0085.0044.0084.0115.022.0212.0408.0194.0376.0489.0958.0873.1736.0766.1556.1882.3892.3231.6927.27.6073.6326 1.4918.9958 2.5873.7282 2.1963 1.4492 5.2113 1.4492 8.5241h2c0-3.5908-.779-6.8257-1.5508-9.1535-.3868-1.1666-.7742-2.1127-1.0667-2.7705-.1463-.3291-.2691-.5865-.3565-.764-.0438-.0887-.0786-.1575-.1032-.2052-.0123-.0239-.022-.0425-.029-.0558-.0035-.0066-.0063-.0119-.0084-.0158-.001-.002-.0019-.0036-.0025-.0049-.0004-.0006-.0007-.0011-.0009-.0016-.0002-.0002-.0003-.0005-.0004-.0006-.0001-.0003-.0002-.0006-.8816.4719zm2 12.5c0 3.3128-.721 6.3278-1.4492 8.5241-.3632 1.0955-.7258 1.98-.9958 2.5873-.1349.3035-.2465.5371-.3231.6927-.0384.0778-.0679.136-.0873.1736-.0097.0188-.0168.0324-.0212.0408-.0022.0042-.0037.007-.0045.0085-.0004.0008-.0006.0012-.0007.0013 0 0 0 0 .0001-.0001 0-.0001.0001-.0002.0001-.0003.0001-.0002.0002-.0004.8816.4721s.8815.4722.8816.472.0002-.0005.0004-.0007c.0002-.0005.0005-.001.0009-.0016.0006-.0013.0015-.0029.0025-.0049.0021-.0039.0049-.0092.0084-.0158.0069-.0133.0167-.0319.029-.0558.0245-.0477.0594-.1165.1032-.2052.0874-.1775.2102-.4349.3565-.764.2925-.6578.6799-1.6038 1.0667-2.7705.7718-2.3278 1.5508-5.5627 1.5508-9.1535z"/></g><ellipse cx="36" cy="36" fill="none" rx="19" ry="28" stroke="#000" stroke-width="2"/><path d="m36 36s-3-5.5964-3-12.5 3-12.5 3-12.5" fill="none" stroke="#000" stroke-linecap="round" stroke-linejoin="round" stroke-width="2"/><path d="m36 36s3 5.5964 3 12.5-3 12.5-3 12.5" fill="none" stroke="#000" stroke-linecap="round" stroke-linejoin="round" stroke-width="2"/></svg>