<svg viewBox="0 0 64 64" xmlns="http://www.w3.org/2000/svg"><path d="m57.2 8.5c-2.1-5.3-8.2-7.9-13.6-5.8s-8 8.1-5.9 13.4c2.2 5.3 8.3 7.9 13.7 5.8s8-8.1 5.8-13.4" fill="#64892f"/><path d="m56.6 8.8c-2-5-7.8-7.4-12.8-5.4-5.1 2-7.5 7.6-5.5 12.6s7.8 7.4 12.8 5.4c5.1-2 7.6-7.7 5.5-12.6" fill="#fdffb8"/><path d="m44.7 3.5c.3-.3 5.7-.4 5.8.2.1.2.3.3.3.5-.1.7-3 7-3 7-.1 0-.4-.4-.6-.1-.2.2-2.9-6.8-2.8-6.9.2-.2.1-.5.3-.7m5.6 17.7c-.3.3-5.7.4-5.8-.2-.1-.2-.3-.3-.3-.5.1-.7 3-7 3-7 .1 0 .4.4.6.1.2-.2 2.9 6.8 2.8 6.9-.2.2-.1.5-.3.7m6.2-11.6c.4.3.4 5.5-.2 5.7-.2.1-.3.3-.5.3-.8-.1-7.2-2.9-7.2-2.9 0-.1.4-.4.1-.6-.2-.2 7-2.8 7.1-2.7.2.1.5 0 .7.2m-18 5.4c-.4-.3-.4-5.5.2-5.7.2-.1.3-.3.5-.3.8.1 7.2 2.9 7.2 2.9 0 .1-.4.4-.1.6.2.2-7 2.8-7.1 2.7-.2 0-.5 0-.7-.2m.8-6.8c-.1-.4 3.7-4.2 4.2-3.9.2.1.5 0 .6.1.4.6 3 7 3 7-.1 0-.5 0-.5.3.1.3-7-2.8-7-2.9 0-.2-.3-.4-.3-.6m16.6 8.4c.1.4-3.7 4.1-4.2 3.9-.2-.1-.5 0-.6-.1-.4-.6-3-7-3-7 .1 0 .5 0 .5-.4-.1-.3 7 2.8 7 2.9 0 .3.2.5.3.7m-4.1-12.4c.4-.1 4.3 3.6 4 4.1-.1.2 0 .4-.2.6-.6.4-7.2 2.9-7.2 2.9 0-.1 0-.5-.4-.5-.3.1 2.9-6.8 3-6.8.4 0 .6-.2.8-.3m-8.6 16.2c-.4.1-4.3-3.6-4-4.1.1-.2 0-.4.2-.6.6-.4 7.2-2.9 7.2-2.9 0 .1 0 .5.4.5.3-.1-2.9 6.8-3 6.8-.4 0-.6.2-.8.3" fill="#ced74d"/><path d="m24.3 9c-2.5-2.5-6.7-2.5-9.2 0l-9.1 8.9 1.4 1.4 9.1-8.9c1.8-1.8 4.7-1.8 6.5 0l20 19.7 1.4-1.4z" fill="#c10259"/><path d="m47.7 12.4h-25.1c4.7 10.9-9.5 30.6 7 33.9 5.1 1.8 4.8 5.9 3.1 9.9-1.8 4.2-5.9 4.9-6 5s-.2.3-.2.5.1.4.3.4h16.6c.1 0 .2-.2.3-.4 0-.2-.1-.5-.2-.5 0 0-4.2-.8-6-5-1.7-3.9-1.9-8.1 3.1-9.9 16.6-3.4 2.4-23.1 7.1-33.9m-12.5 32.5c-20.9 0-6.2-21-10.5-31.7h21c-4.3 10.7 10.4 31.7-10.5 31.7" fill="#a1b8c7" opacity=".8"/><g opacity=".8"><path d="m25.2 32.3c-.6 6.1.5 11 9.9 11 7.8 0 9.9-3.4 10-8.1-6.2 1.2-11.8-4.2-19.9-2.9" fill="#f65500"/><path d="m45.2 35.3c.1-3.5-.9-7.7-1.4-11.6-5.4.2-10.4-3.7-17.1-3.3-.1 3.8-1.1 8.1-1.5 11.9 8.1-1.3 13.7 4.1 20 3" fill="#fcb334"/></g></svg>